<svg version="1.1" id="Layer_1" xmlns="http://www.w3.org/2000/svg" xmlns:xlink="http://www.w3.org/1999/xlink" x="0px" y="0px"
	 viewBox="0 0 577 316" style="enable-background:new 0 0 577 316;" xml:space="preserve">

	<defs>
		<style type="text/css">
				.st0{fill:none;stroke:#333338;stroke-width:5;stroke-linejoin:round;stroke-miterlimit:1;}

				.st0 {
					stroke-dasharray: 2020;
					stroke-dashoffset: 0;
					-webkit-animation: dash 3s linear forwards;
					-moz-animation: dash 3s linear forwards;
					-o-animation: dash 3s linear forwards;
					animation: dash 3s linear forwards;
				}

				@-webkit-keyframes dash {
					from {
						stroke-dashoffset: 2020;
					}
					to {
						stroke-dashoffset: 0;
					}
				}

		</style>
</defs>
<g>
	<path class="st0" d="M37.621,41.282c-3.199,4.537-6.063,8.8-8.6,12.8c-2.531,4-5.131,7.869-7.8,11.6c-1.862,2.938-4.2,4.669-7,5.2
		c-2.8,0.538-5.132-0.263-7-2.399c2.399-6.132,4.669-11.932,6.8-17.4c2.138-5.463,4.4-10.862,6.801-16.2
		c2.137-5.063,5.068-9.462,8.799-13.2c2.139-2.131,4.601-4.199,7.4-6.199c2.801-2,5.531-3.801,8.2-5.4
		c1.331-0.8,2.8-1.263,4.399-1.4c1.601-0.131,3.201-0.199,4.801-0.199c2.131-0.263,4.131-0.4,6-0.4c1.862,0,3.862,0.269,6,0.8
		c10.662,3.469,18.262,9.469,22.8,18c1.331,2.138,2.399,4.469,3.2,7c0.8,2.538,1.6,5,2.4,7.4c1.33,5.337,2.799,10.6,4.399,15.8
		s3.063,10.469,4.399,15.8c0.801,2.4,1.264,4.869,1.4,7.4c0.131,2.537,0.463,5.269,1,8.2c1.063-2.4,2-4.601,2.801-6.601
		c0.799-2,1.73-4.063,2.799-6.2c2.132-4.531,4-9.131,5.601-13.8c1.601-4.662,3.731-9.263,6.399-13.8c1.863-4,4.264-7.531,7.201-10.6
		c2.931-3.063,5.462-6.463,7.6-10.2c3.199-5.601,7.331-9,12.4-10.2c5.063-1.2,10.262-2.063,15.6-2.6c1.6,0,3.531,0.399,5.8,1.199
		c2.263,0.801,4.399,1.938,6.399,3.4c2,1.469,3.801,3.138,5.4,5c1.6,1.869,2.801,3.6,3.6,5.2c1.332,2.938,2.601,5.868,3.801,8.8
		c1.199,2.938,2.6,5.869,4.199,8.8c0.531,1.338,1.264,2.4,2.201,3.2c0.931,0.8,1.799,1.6,2.6,2.4c8.262,5.868,12.8,13.469,13.6,22.8
		c0.531,3.469,1.263,5.938,2.2,7.399c0.931,1.469,1.531,4.069,1.8,7.801c0.263,2.668,0.4,4.6,0.4,5.8s0,2.337,0,3.399
		c0,1.069,0,2.27,0,3.601c0,1.337,0,3.337,0,6v15.2c0,4.537,0.063,8.6,0.199,12.199c0.132,3.601,0.201,7.801,0.201,12.601
		c0,3.737,0,6.469,0,8.2c0,1.737-0.27,4.469-0.801,8.199c-0.269,2.938-0.4,5.938-0.4,9c0,3.069-0.537,6.069-1.6,9
		c-1.338,3.738-1.869,7.27-1.6,10.601c0.262,3.337,0.932,6.6,2,9.8c1.331,4,1.8,7.938,1.4,11.8c-0.4,3.869-0.601,7.938-0.601,12.2
		c-0.269,2.669-0.2,5.4,0.2,8.2s0.862,5.669,1.4,8.6c0.531,2.669,0.931,5.269,1.199,7.8c0.263,2.538-0.269,5-1.6,7.4
		c-1.068,2.669-0.537,4.8,1.6,6.4c2.4,2.399,4.131,4.8,5.2,7.199c1.063,2.132,2.2,3.531,3.399,4.2
		c1.201,0.663,3.132,0.601,5.801-0.2c4.262-1.6,7.662-4.068,10.199-7.399c2.531-3.331,4.863-6.862,7-10.601
		c2.132-3.462,3.863-7,5.201-10.6c1.33-3.6,2.799-7.263,4.399-11c0.8-1.331,1.063-2.862,0.8-4.6c-0.269-1.731-0.269-2.601,0-2.601
		c3.731,1.338,5.662,2.869,5.801,4.601c0.131,1.737-0.069,3.137-0.601,4.199c-1.337,4.538-2.669,8.938-4,13.2
		c-1.337,4.269-3.069,8.538-5.2,12.8c-2.668,5.332-6.068,9.932-10.199,13.801c-4.139,3.862-9.4,6.462-15.801,7.8
		c-2.668,0.531-4.8,0.8-6.4,0.8c-1.6,0-3.068-0.338-4.399-1c-1.337-0.669-2.669-1.469-4-2.4c-1.337-0.938-3.2-1.938-5.601-3
		c-2.137-1.337-4.268-2.537-6.399-3.6c-2.138-1.068-4.138-2.269-6-3.6c-9.868-7.731-16.8-17.731-20.8-30
		c-1.869-4.531-3.469-9.063-4.801-13.601c-1.337-4.531-2.668-9.063-4-13.6c-2.137-7.463-3.736-14.8-4.799-22
		c-1.069-7.2-1.338-14.663-0.801-22.4c0.531-6.662,1.063-12.399,1.6-17.2c0.531-4.8-0.268-10.531-2.399-17.199
		c-0.269-1.863-0.269-3.263,0-4.2c0.263-0.932,0.263-2.2,0-3.8c0-3.2-0.138-5.801-0.399-7.801c-0.27-2-0.538-3.931-0.801-5.8
		c-0.269-1.862-0.537-3.8-0.8-5.8c-0.269-2-0.538-4.463-0.8-7.4c-0.27-4.531-0.469-8.131-0.6-10.8
		c-0.139-2.662-0.27-5.131-0.4-7.399c-0.138-2.263-0.27-4.731-0.4-7.4c-0.137-2.662-0.338-6.263-0.6-10.8
		c-0.27-4-0.669-7.862-1.2-11.601c-0.538-3.73-1.069-7.462-1.601-11.199c-0.268-1.332-0.537-2.463-0.799-3.4
		c-0.27-0.932-0.67-2.063-1.201-3.4c-6.137,3.738-11.137,8.27-15,13.601c-3.868,5.337-7.268,11.068-10.199,17.2
		c-4.27,9.068-7.738,18.199-10.4,27.399c-2.668,9.2-4.938,18.601-6.8,28.2c-0.538,2.138-0.601,4.537-0.2,7.2
		c0.4,2.669,0.6,5.2,0.6,7.6c0.264,2.938,0.332,5.938,0.201,9c-0.139,3.069-0.069,6.069,0.199,9c0,4.538,0.131,8.938,0.4,13.2
		c0.262,4.269,0.4,8.669,0.4,13.2c0,4.537,0,9.138,0,13.8c0,4.669-0.139,9.269-0.4,13.8c0,4-0.4,7.338-1.2,10
		c-0.538,2.138-0.938,4.338-1.2,6.601c-0.269,2.269-0.938,4.337-2,6.199c-2.938,5.338-4.469,10.669-4.6,16
		c-0.138,5.338-0.2,10.801-0.2,16.4c-0.269,1.6-0.601,3.269-1,5s-0.868,3.531-1.399,5.4c-0.538,4.262-1.201,8.399-2,12.399
		c-0.801,4-1.469,8-2,12c-0.801,2.932-1.938,5.063-3.4,6.4c-1.469,1.331-3.938,1.862-7.4,1.6c-4.537-0.537-8.4-1.469-11.6-2.8
		c-3.469-1.869-7.138-2.938-11-3.2c-3.869-0.269-7.938-0.269-12.2,0c0.263-1.6,0.399-3.068,0.399-4.399c0-1.338,0.264-2.4,0.801-3.2
		c2.131-2.138,3.063-4.4,2.8-6.8c-0.269-2.4-0.538-4.801-0.8-7.2c-0.27-4.269-0.4-8.469-0.4-12.601c0-4.131-0.137-8.199-0.4-12.199
		c0-4.801-0.068-9.531-0.199-14.2c-0.138-4.663-0.2-9.263-0.2-13.8c0-10.4,0-20.801,0-31.2c0-10.4,0.263-20.8,0.8-31.2
		c0.531-12-0.068-23.862-1.8-35.6c-1.737-11.731-3.269-23.601-4.601-35.601c-1.068-7.462-2.199-14.8-3.399-22s-2.469-14.531-3.8-22
		c-0.27-1.331-0.669-2.731-1.2-4.2C38.684,45.22,38.152,43.42,37.621,41.282z"/>
	<path class="st0" d="M339.215,41.282c-3.2,4.537-6.063,8.8-8.6,12.8c-2.531,4-5.132,7.869-7.801,11.6
		c-1.862,2.938-4.199,4.669-7,5.2c-2.8,0.538-5.131-0.263-7-2.399c2.4-6.132,4.669-11.932,6.801-17.4
		c2.137-5.463,4.399-10.862,6.8-16.2c2.138-5.063,5.068-9.462,8.8-13.2c2.138-2.131,4.6-4.199,7.4-6.199
		c2.8-2,5.531-3.801,8.199-5.4c1.332-0.8,2.801-1.263,4.4-1.4c1.6-0.131,3.2-0.199,4.8-0.199c2.132-0.263,4.132-0.4,6-0.4
		c1.862,0,3.862,0.269,6,0.8c10.663,3.469,18.263,9.469,22.8,18c1.332,2.138,2.4,4.469,3.2,7c0.8,2.538,1.601,5,2.4,7.4
		c1.331,5.337,2.8,10.6,4.399,15.8c1.601,5.2,3.063,10.469,4.4,15.8c0.8,2.4,1.263,4.869,1.4,7.4c0.131,2.537,0.462,5.269,1,8.2
		c1.063-2.4,2-4.601,2.8-6.601s1.731-4.063,2.8-6.2c2.131-4.531,4-9.131,5.6-13.8c1.601-4.662,3.731-9.263,6.4-13.8
		c1.862-4,4.263-7.531,7.2-10.6c2.931-3.063,5.462-6.463,7.6-10.2c3.2-5.601,7.331-9,12.4-10.2c5.063-1.2,10.263-2.063,15.6-2.6
		c1.601,0,3.531,0.399,5.8,1.199c2.263,0.801,4.4,1.938,6.4,3.4c2,1.469,3.8,3.138,5.4,5c1.6,1.869,2.8,3.6,3.6,5.2
		c1.331,2.938,2.6,5.868,3.8,8.8c1.2,2.938,2.601,5.869,4.2,8.8c0.531,1.338,1.263,2.4,2.2,3.2c0.931,0.8,1.8,1.6,2.6,2.4
		c8.263,5.868,12.8,13.469,13.601,22.8c0.531,3.469,1.262,5.938,2.199,7.399c0.932,1.469,1.531,4.069,1.801,7.801
		c0.262,2.668,0.399,4.6,0.399,5.8s0,2.337,0,3.399c0,1.069,0,2.27,0,3.601c0,1.337,0,3.337,0,6v15.2c0,4.537,0.063,8.6,0.2,12.199
		c0.131,3.601,0.2,7.801,0.2,12.601c0,3.737,0,6.469,0,8.2c0,1.737-0.269,4.469-0.8,8.199c-0.27,2.938-0.4,5.938-0.4,9
		c0,3.069-0.537,6.069-1.6,9c-1.338,3.738-1.869,7.27-1.601,10.601c0.263,3.337,0.932,6.6,2,9.8c1.331,4,1.8,7.938,1.4,11.8
		c-0.4,3.869-0.601,7.938-0.601,12.2c-0.269,2.669-0.199,5.4,0.2,8.2c0.4,2.8,0.862,5.669,1.4,8.6c0.531,2.669,0.931,5.269,1.2,7.8
		c0.262,2.538-0.27,5-1.601,7.4c-1.068,2.669-0.537,4.8,1.601,6.4c2.399,2.399,4.131,4.8,5.199,7.199c1.063,2.132,2.2,3.531,3.4,4.2
		c1.2,0.663,3.131,0.601,5.8-0.2c4.263-1.6,7.663-4.068,10.2-7.399c2.531-3.331,4.862-6.862,7-10.601c2.131-3.462,3.862-7,5.2-10.6
		c1.331-3.6,2.8-7.263,4.399-11c0.801-1.331,1.063-2.862,0.801-4.6c-0.27-1.731-0.27-2.601,0-2.601
		c3.73,1.338,5.662,2.869,5.8,4.601c0.131,1.737-0.069,3.137-0.601,4.199c-1.337,4.538-2.668,8.938-4,13.2
		c-1.337,4.269-3.068,8.538-5.199,12.8c-2.669,5.332-6.069,9.932-10.2,13.801c-4.138,3.862-9.4,6.462-15.8,7.8
		c-2.669,0.531-4.801,0.8-6.4,0.8s-3.068-0.338-4.4-1c-1.337-0.669-2.668-1.469-4-2.4c-1.337-0.938-3.199-1.938-5.6-3
		c-2.138-1.337-4.269-2.537-6.4-3.6c-2.137-1.068-4.137-2.269-6-3.6c-9.868-7.731-16.8-17.731-20.8-30
		c-1.868-4.531-3.469-9.063-4.8-13.601c-1.338-4.531-2.669-9.063-4-13.6c-2.138-7.463-3.737-14.8-4.8-22
		c-1.069-7.2-1.338-14.663-0.8-22.4c0.531-6.662,1.063-12.399,1.6-17.2c0.531-4.8-0.269-10.531-2.4-17.199
		c-0.269-1.863-0.269-3.263,0-4.2c0.263-0.932,0.263-2.2,0-3.8c0-3.2-0.137-5.801-0.399-7.801c-0.269-2-0.538-3.931-0.8-5.8
		c-0.27-1.862-0.538-3.8-0.801-5.8c-0.269-2-0.537-4.463-0.8-7.4c-0.269-4.531-0.469-8.131-0.6-10.8
		c-0.138-2.662-0.269-5.131-0.4-7.399c-0.138-2.263-0.269-4.731-0.399-7.4c-0.138-2.662-0.338-6.263-0.601-10.8
		c-0.269-4-0.669-7.862-1.2-11.601c-0.537-3.73-1.068-7.462-1.6-11.199c-0.269-1.332-0.537-2.463-0.8-3.4
		c-0.269-0.932-0.669-2.063-1.2-3.4c-6.138,3.738-11.138,8.27-15,13.601c-3.869,5.337-7.269,11.068-10.2,17.2
		c-4.269,9.068-7.737,18.199-10.399,27.399c-2.669,9.2-4.938,18.601-6.801,28.2c-0.537,2.138-0.6,4.537-0.199,7.2
		c0.399,2.669,0.6,5.2,0.6,7.6c0.263,2.938,0.331,5.938,0.2,9c-0.138,3.069-0.069,6.069,0.2,9c0,4.538,0.131,8.938,0.399,13.2
		c0.263,4.269,0.4,8.669,0.4,13.2c0,4.537,0,9.138,0,13.8c0,4.669-0.138,9.269-0.4,13.8c0,4-0.399,7.338-1.2,10
		c-0.537,2.138-0.938,4.338-1.199,6.601c-0.27,2.269-0.938,4.337-2,6.199c-2.938,5.338-4.469,10.669-4.601,16
		c-0.138,5.338-0.2,10.801-0.2,16.4c-0.269,1.6-0.6,3.269-1,5c-0.399,1.731-0.868,3.531-1.399,5.4c-0.538,4.262-1.2,8.399-2,12.399
		s-1.469,8-2,12c-0.8,2.932-1.938,5.063-3.4,6.4c-1.469,1.331-3.938,1.862-7.399,1.6c-4.538-0.537-8.4-1.469-11.601-2.8
		c-3.469-1.869-7.138-2.938-11-3.2c-3.868-0.269-7.938-0.269-12.2,0c0.263-1.6,0.4-3.068,0.4-4.399c0-1.338,0.263-2.4,0.8-3.2
		c2.132-2.138,3.063-4.4,2.8-6.8c-0.269-2.4-0.537-4.801-0.8-7.2c-0.269-4.269-0.399-8.469-0.399-12.601
		c0-4.131-0.138-8.199-0.4-12.199c0-4.801-0.068-9.531-0.2-14.2c-0.138-4.663-0.2-9.263-0.2-13.8c0-10.4,0-20.801,0-31.2
		c0-10.4,0.263-20.8,0.801-31.2c0.531-12-0.069-23.862-1.801-35.6c-1.737-11.731-3.269-23.601-4.6-35.601
		c-1.068-7.462-2.2-14.8-3.4-22c-1.199-7.2-2.469-14.531-3.8-22c-0.269-1.331-0.669-2.731-1.2-4.2
		C340.277,45.22,339.746,43.42,339.215,41.282z"/>
</g>
</svg>
